<svg xmlns="http://www.w3.org/2000/svg" xmlns:xlink="http://www.w3.org/1999/xlink" viewBox="0 0 821.0041 254.0403"><defs><style>.cls-1{fill:#d5d4da;}.cls-2{fill:#515151;}.cls-3{fill:#282828;}.cls-4{fill:url(#linear-gradient);}.cls-5{fill:url(#linear-gradient-2);}.cls-6{fill:url(#linear-gradient-3);}.cls-7{fill:url(#linear-gradient-4);}.cls-8{fill:url(#linear-gradient-5);}.cls-9{fill:url(#linear-gradient-6);}.cls-10{fill:url(#linear-gradient-7);}.cls-11{fill:url(#linear-gradient-8);}.cls-12{fill:url(#linear-gradient-9);}.cls-13{fill:url(#linear-gradient-10);}.cls-14{fill:url(#linear-gradient-11);}.cls-15{fill:url(#linear-gradient-12);}.cls-16{fill:url(#linear-gradient-13);}.cls-17{fill:url(#linear-gradient-14);}.cls-18{fill:url(#linear-gradient-15);}.cls-19{fill:url(#linear-gradient-16);}.cls-20{fill:url(#linear-gradient-17);}.cls-21{fill:url(#linear-gradient-18);}.cls-22{fill:#a5a5a5;}.cls-23{fill:#898989;}.cls-24{fill:#5d5d5d;}.cls-25{fill:url(#linear-gradient-19);}.cls-26{fill:url(#linear-gradient-20);}.cls-27{fill:url(#linear-gradient-21);}.cls-28{fill:url(#linear-gradient-22);}.cls-29{fill:url(#linear-gradient-23);}.cls-30{fill:url(#linear-gradient-24);}.cls-31{fill:url(#linear-gradient-25);}.cls-32{fill:url(#linear-gradient-26);}.cls-33{fill:url(#linear-gradient-27);}.cls-34{fill:url(#linear-gradient-28);}.cls-35{fill:url(#linear-gradient-29);}.cls-36{fill:url(#linear-gradient-30);}.cls-37{fill:url(#linear-gradient-31);}.cls-38{fill:url(#linear-gradient-32);}.cls-39{fill:url(#linear-gradient-33);}.cls-40{fill:url(#linear-gradient-34);}.cls-41{fill:url(#linear-gradient-35);}.cls-42{fill:url(#linear-gradient-36);}.cls-43{fill:#eceef2;}.cls-44{fill:#1f2d33;}</style><linearGradient id="linear-gradient" x1="266.95045" y1="214.99435" x2="274.59975" y2="214.99435" gradientUnits="userSpaceOnUse"><stop offset="0" stop-color="#58595b"/><stop offset="0.28856" stop-color="#4d4d4e"/><stop offset="0.8165" stop-color="#2f2c2d"/><stop offset="1" stop-color="#231f20"/></linearGradient><linearGradient id="linear-gradient-2" x1="732.93015" y1="296.75313" x2="740.57936" y2="296.75313" gradientTransform="matrix(0.9397, -0.342, 0.342, 0.9397, -527.19326, 188.82419)" xlink:href="#linear-gradient"/><linearGradient id="linear-gradient-3" x1="1142.33961" y1="533.81246" x2="1149.98904" y2="533.81246" gradientTransform="matrix(0.766, -0.6428, 0.6428, 0.766, -958.12554, 545.66121)" xlink:href="#linear-gradient"/><linearGradient id="linear-gradient-4" x1="1446.90427" y1="895.51066" x2="1454.55368" y2="895.51066" gradientTransform="translate(-1240.62342 1029.60158) rotate(-59.99927)" xlink:href="#linear-gradient"/><linearGradient id="linear-gradient-5" x1="1608.24077" y1="1340.37901" x2="1615.89015" y2="1340.37901" gradientTransform="translate(-1341.05933 1579.85073) rotate(-80.00264)" xlink:href="#linear-gradient"/><linearGradient id="linear-gradient-6" x1="1609.31911" y1="1812.4751" x2="1616.96848" y2="1812.4751" gradientTransform="translate(-1246.09621 2132.46084) rotate(-99.99736)" xlink:href="#linear-gradient"/><linearGradient id="linear-gradient-7" x1="1447.20306" y1="2257.58855" x2="1454.85252" y2="2257.58855" gradientTransform="translate(-969.34226 2618.53738) rotate(-120.00073)" xlink:href="#linear-gradient"/><linearGradient id="linear-gradient-8" x1="1143.90714" y1="2619.60833" x2="1151.55661" y2="2619.60833" gradientTransform="matrix(-0.766, -0.6428, 0.6428, -0.766, -541.80841, 2980.77025)" xlink:href="#linear-gradient"/><linearGradient id="linear-gradient-9" x1="733.53836" y1="2856.49033" x2="741.18757" y2="2856.49033" gradientTransform="matrix(-0.9397, -0.342, 0.342, -0.9397, -17.466, 3174.92743)" xlink:href="#linear-gradient"/><linearGradient id="linear-gradient-10" x1="268.03816" y1="2938.62195" x2="275.68737" y2="2938.62195" gradientTransform="translate(542.56232 3177.8716) rotate(180)" xlink:href="#linear-gradient"/><linearGradient id="linear-gradient-11" x1="-197.52824" y1="2856.51764" x2="-189.87903" y2="2856.51764" gradientTransform="matrix(-0.9397, 0.342, -0.342, -0.9397, 1069.75558, 2989.04741)" xlink:href="#linear-gradient"/><linearGradient id="linear-gradient-12" x1="-607.6663" y1="2620.91921" x2="-600.01689" y2="2620.91921" gradientTransform="matrix(-0.766, 0.6428, -0.6428, -0.766, 1500.68786, 2632.21039)" xlink:href="#linear-gradient"/><linearGradient id="linear-gradient-13" x1="-911.31713" y1="2258.32641" x2="-903.66772" y2="2258.32641" gradientTransform="translate(1783.18574 2148.27012) rotate(120.00073)" xlink:href="#linear-gradient"/><linearGradient id="linear-gradient-14" x1="-1073.88459" y1="1814.28705" x2="-1066.23522" y2="1814.28705" gradientTransform="translate(1883.62164 1598.02087) rotate(99.99736)" xlink:href="#linear-gradient"/><linearGradient id="linear-gradient-15" x1="-1073.18392" y1="1340.7094" x2="-1065.53455" y2="1340.7094" gradientTransform="translate(1788.65853 1045.41076) rotate(80.00264)" xlink:href="#linear-gradient"/><linearGradient id="linear-gradient-16" x1="-912.10597" y1="896.65681" x2="-904.45656" y2="896.65681" gradientTransform="translate(1511.90458 559.33422) rotate(59.99927)" xlink:href="#linear-gradient"/><linearGradient id="linear-gradient-17" x1="-607.76509" y1="533.89999" x2="-600.1157" y2="533.89999" gradientTransform="matrix(0.766, 0.6428, -0.6428, 0.766, 1084.37072, 197.10135)" xlink:href="#linear-gradient"/><linearGradient id="linear-gradient-18" x1="-198.96429" y1="297.4698" x2="-191.31511" y2="297.4698" gradientTransform="matrix(0.9397, 0.342, -0.342, 0.9397, 560.02832, 2.94417)" xlink:href="#linear-gradient"/><linearGradient id="linear-gradient-19" x1="336.27257" y1="214.99435" x2="343.92187" y2="214.99435" gradientTransform="matrix(-1, 0, 0, 1, 890.28452, 0)" xlink:href="#linear-gradient"/><linearGradient id="linear-gradient-20" x1="798.07206" y1="320.46126" x2="805.72126" y2="320.46126" gradientTransform="matrix(-0.9397, -0.342, -0.342, 0.9397, 1417.47768, 188.82419)" xlink:href="#linear-gradient"/><linearGradient id="linear-gradient-21" x1="1195.44305" y1="578.37498" x2="1203.09248" y2="578.37498" gradientTransform="matrix(-0.766, -0.6428, -0.6428, 0.766, 1848.40996, 545.66121)" xlink:href="#linear-gradient"/><linearGradient id="linear-gradient-22" x1="1481.56686" y1="955.54626" x2="1489.21627" y2="955.54626" gradientTransform="matrix(-0.5, -0.866, -0.866, 0.5, 2130.90794, 1029.60158)" xlink:href="#linear-gradient"/><linearGradient id="linear-gradient-23" x1="1620.27547" y1="1408.64962" x2="1627.92485" y2="1408.64962" gradientTransform="matrix(-0.1736, -0.9848, -0.9848, 0.1736, 2231.34384, 1579.85073)" xlink:href="#linear-gradient"/><linearGradient id="linear-gradient-24" x1="1597.2844" y1="1880.74571" x2="1604.93377" y2="1880.74571" gradientTransform="matrix(0.1736, -0.9848, -0.9848, -0.1736, 2136.38073, 2132.46084)" xlink:href="#linear-gradient"/><linearGradient id="linear-gradient-25" x1="1412.54047" y1="2317.62415" x2="1420.18993" y2="2317.62415" gradientTransform="matrix(0.5, -0.866, -0.866, -0.5, 1859.62678, 2618.53738)" xlink:href="#linear-gradient"/><linearGradient id="linear-gradient-26" x1="1090.80363" y1="2664.17091" x2="1098.4531" y2="2664.17091" gradientTransform="matrix(0.766, -0.6428, -0.6428, -0.766, 1432.09292, 2980.77025)" xlink:href="#linear-gradient"/><linearGradient id="linear-gradient-27" x1="668.39636" y1="2880.19849" x2="676.04557" y2="2880.19849" gradientTransform="matrix(0.9397, -0.342, -0.342, -0.9397, 907.75052, 3174.92743)" xlink:href="#linear-gradient"/><linearGradient id="linear-gradient-28" x1="198.71605" y1="2938.62195" x2="206.36525" y2="2938.62195" gradientTransform="matrix(1, 0, 0, -1, 347.72219, 3177.8716)" xlink:href="#linear-gradient"/><linearGradient id="linear-gradient-29" x1="-262.67023" y1="2832.80948" x2="-255.02101" y2="2832.80948" gradientTransform="matrix(0.9397, 0.342, 0.342, -0.9397, -179.47106, 2989.04741)" xlink:href="#linear-gradient"/><linearGradient id="linear-gradient-30" x1="-660.76982" y1="2576.35663" x2="-653.1204" y2="2576.35663" gradientTransform="matrix(0.766, 0.6428, 0.6428, -0.766, -610.40334, 2632.21039)" xlink:href="#linear-gradient"/><linearGradient id="linear-gradient-31" x1="-945.97958" y1="2198.29085" x2="-938.33016" y2="2198.29085" gradientTransform="matrix(0.5, 0.866, 0.866, -0.5, -892.90132, 2148.27002)" xlink:href="#linear-gradient"/><linearGradient id="linear-gradient-32" x1="-1085.91928" y1="1746.01654" x2="-1078.2699" y2="1746.01654" gradientTransform="matrix(0.1736, 0.9848, 0.9848, -0.1736, -993.33723, 1598.02087)" xlink:href="#linear-gradient"/><linearGradient id="linear-gradient-33" x1="-1061.14922" y1="1272.43879" x2="-1053.49984" y2="1272.43879" gradientTransform="matrix(-0.1736, 0.9848, 0.9848, 0.1736, -898.37401, 1045.41076)" xlink:href="#linear-gradient"/><linearGradient id="linear-gradient-34" x1="-877.44344" y1="836.62131" x2="-869.79403" y2="836.62131" gradientTransform="matrix(-0.5, 0.866, 0.866, 0.5, -621.62016, 559.33422)" xlink:href="#linear-gradient"/><linearGradient id="linear-gradient-35" x1="-554.66165" y1="489.33747" x2="-547.01226" y2="489.33747" gradientTransform="matrix(-0.766, 0.6428, 0.6428, 0.766, -194.08631, 197.10135)" xlink:href="#linear-gradient"/><linearGradient id="linear-gradient-36" x1="-133.82239" y1="273.76167" x2="-126.17321" y2="273.76167" gradientTransform="matrix(-0.9397, 0.342, 0.342, 0.9397, 330.2561, 2.94417)" xlink:href="#linear-gradient"/></defs><g id="Layer_2" data-name="Layer 2"><g id="Layer_1-2" data-name="Layer 1"><path class="cls-1" d="M.00006,150.4172l.4963,46.5804a.82334.82334,0,0,0,1.6384.1073l3.4214-24.0209-3.9213-22.815A.82337.82337,0,0,0,.00006,150.4172Z"/><path class="cls-2" d="M167.25445,200.292h0a4.33824,4.33824,0,0,1-4.33829-4.3382v-9.0539h8.67659v9.0539A4.33825,4.33825,0,0,1,167.25445,200.292Z"/><path class="cls-1" d="M821.004,150.4172l-.4963,46.5804a.82334.82334,0,0,1-1.6384.1073l-3.4214-24.0209,3.9213-22.815A.82337.82337,0,0,1,821.004,150.4172Z"/><path class="cls-2" d="M653.74964,200.292h0a4.33825,4.33825,0,0,0,4.3383-4.3382v-9.0539h-8.6766v9.0539A4.33825,4.33825,0,0,0,653.74964,200.292Z"/><path class="cls-3" d="M291.97216,228.6283a21.533,21.533,0,1,1-21.52781-21.5382A21.5224,21.5224,0,0,1,291.97216,228.6283Z"/><path class="cls-4" d="M269.69635,223.657c-.0654-.1961-2.7459-17.7829-2.7459-17.7829l7.6493.3269-3.6234,17.9136Z"/><path class="cls-5" d="M268.57405,224.222c-.1286-.162-8.6624-15.7713-8.6624-15.7713l7.2997-2.309,2.722,18.0726Z"/><path class="cls-6" d="M267.71265,225.1368c-.1762-.1083-13.5341-11.8575-13.5341-11.8575l6.0698-4.6664,8.7389,16.0517Z"/><path class="cls-7" d="M267.21605,226.291c-.2026-.0414-16.7734-6.5134-16.7734-6.5134l4.1077-6.461,13.702,12.0947Z"/><path class="cls-8" d="M267.14416,227.5455c-.20451.0303-17.98951-.3838-17.98951-.3838l1.6502-7.4763,17.01231,6.679Z"/><path class="cls-9" d="M267.50565,228.7489c-.1818.0984-17.0359,5.7921-17.0359,5.7921l-1.0063-7.5898,18.27071.4577Z"/><path class="cls-10" d="M268.257,229.7561c-.1371.1546-14.0274,11.2694-14.0274,11.2694l-3.5416-6.7879,17.3254-5.8189Z"/><path class="cls-11" d="M269.30745,230.4455c-.076.1923-9.3271,15.3875-9.3271,15.3875l-5.6496-5.1672,14.29041-11.3936Z"/><path class="cls-12" d="M270.53035,230.7341c-.0056.2067-3.5018,17.6496-3.5018,17.6496l-7.0761-2.9234,9.53171-15.594Z"/><path class="cls-13" d="M271.77825,230.5871c.0654.1961,2.74591,17.7828,2.74591,17.7828l-7.64921-.3269,3.6234-17.9136Z"/><path class="cls-14" d="M272.90065,230.0221c.12851.1619,8.6623,15.7713,8.6623,15.7713l-7.2997,2.309-2.7219-18.0726Z"/><path class="cls-15" d="M273.76205,229.1073c.17611.1082,13.534,11.8574,13.534,11.8574l-6.0697,4.6665-8.739-16.0517Z"/><path class="cls-16" d="M274.25865,227.9531c.20251.0414,16.7733,6.5134,16.7733,6.5134l-4.1077,6.461-13.702-12.0948Z"/><path class="cls-17" d="M274.33045,226.6986c.2045-.0303,17.9895.3838,17.9895.3838l-1.6502,7.4763-17.0122-6.6791Z"/><path class="cls-18" d="M273.969,225.4952c.1818-.0985,17.0359-5.7921,17.0359-5.7921l1.00631,7.5898-18.27061-.4577Z"/><path class="cls-19" d="M273.21765,224.488c.1372-.1547,14.02751-11.2694,14.02751-11.2694l3.54149,6.7879-17.3254,5.8188Z"/><path class="cls-20" d="M272.16716,223.7985c.076-.1922,9.32719-15.3874,9.32719-15.3874l5.6495,5.1672-14.2903,11.3936Z"/><path class="cls-21" d="M270.94425,223.5099c.0056-.2066,3.5018-17.6495,3.5018-17.6495l7.07611,2.9233-9.53171,15.5941Z"/><path class="cls-2" d="M270.45185,201.0503a26.495,26.495,0,1,0,26.49,26.5A26.49863,26.49863,0,0,0,270.45185,201.0503Zm0,50a23.505,23.505,0,1,1,23.5-23.5A23.50686,23.50686,0,0,1,270.45185,251.0503Z"/><path class="cls-22" d="M270.45185,204.0403a23.505,23.505,0,1,0,23.5,23.51A23.5154,23.5154,0,0,0,270.45185,204.0403Zm0,44.0901a20.58505,20.58505,0,1,1,20.58-20.5801A20.58346,20.58346,0,0,1,270.45185,248.1304Z"/><path class="cls-1" d="M365.79765,213.2342s-.3283-.0679-.945-.198c-8.3182-1.7089-69.64649-14.1466-105.8164-16.7779-31.85809-2.32-185.456-15.4198-239.73929-20.0598l-.0735-.0057C7.35156,175.1743.25,174.5688.25,174.5688v-2.6426l.7075-.1699a28.205,28.205,0,0,1,8.1202-.7375L361.299,190.2262Z"/><path class="cls-2" d="M364.85265,213.0362c-8.3182-1.7089-69.64649-14.1466-105.8164-16.7779-31.85809-2.32-185.456-15.4198-239.73929-20.0598l342.002,18.6508Z"/><path class="cls-2" d="M209.61935,203.0506h0a4.33833,4.33833,0,0,1-4.3383-4.3383v-9.0538h8.6766v9.0538A4.33827,4.33827,0,0,1,209.61935,203.0506Z"/><rect class="cls-2" x="265.56905" y="193.596" width="10.3978" height="9.266"/><path class="cls-23" d="M275.96685,226.7697a5.5172,5.5172,0,1,1-5.5172-5.5172A5.51713,5.51713,0,0,1,275.96685,226.7697Z"/><path class="cls-24" d="M273.65755,226.7697a3.20785,3.20785,0,1,1-3.2079-3.2079A3.20785,3.20785,0,0,1,273.65755,226.7697Z"/><path class="cls-3" d="M528.99024,228.6283a21.533,21.533,0,1,0,21.5278-21.5382A21.52239,21.52239,0,0,0,528.99024,228.6283Z"/><path class="cls-25" d="M551.266,223.657c.0654-.1961,2.7459-17.7829,2.7459-17.7829l-7.6493.3269,3.6234,17.9136Z"/><path class="cls-26" d="M552.38834,224.222c.1285-.162,8.6624-15.7713,8.6624-15.7713l-7.2997-2.309-2.722,18.0726Z"/><path class="cls-27" d="M553.24974,225.1368c.1762-.1083,13.5341-11.8575,13.5341-11.8575l-6.0698-4.6664-8.73888,16.0517Z"/><path class="cls-28" d="M553.74634,226.291c.2026-.0414,16.7734-6.5134,16.7734-6.5134l-4.1077-6.461L552.71,225.4113Z"/><path class="cls-29" d="M553.81824,227.5455c.2045.0303,17.9895-.3838,17.9895-.3838l-1.6502-7.4763-17.0123,6.679Z"/><path class="cls-30" d="M553.45674,228.7489c.1818.0984,17.0359,5.7921,17.0359,5.7921l1.0063-7.5898-18.2707.4577Z"/><path class="cls-31" d="M552.70544,229.7561c.1371.1546,14.0274,11.2694,14.0274,11.2694l3.5416-6.7879-17.3254-5.8189Z"/><path class="cls-32" d="M551.65494,230.4455c.076.1923,9.3271,15.3875,9.3271,15.3875l5.6496-5.1672-14.2904-11.3936Z"/><path class="cls-33" d="M550.432,230.7341c.0056.2067,3.5018,17.6496,3.5018,17.6496l7.0761-2.9234-9.5317-15.594Z"/><path class="cls-34" d="M549.18416,230.5871c-.06542.1961-2.74592,17.7828-2.74592,17.7828l7.6492-.3269-3.6234-17.9136Z"/><path class="cls-35" d="M548.06174,230.0221c-.1285.1619-8.6623,15.7713-8.6623,15.7713l7.29972,2.309,2.72188-18.0726Z"/><path class="cls-36" d="M547.20034,229.1073c-.1761.1082-13.534,11.8574-13.534,11.8574l6.0697,4.6665,8.739-16.0517Z"/><path class="cls-37" d="M546.70374,227.9531c-.2025.0414-16.7733,6.5134-16.7733,6.5134l4.10772,6.461,13.702-12.0948Z"/><path class="cls-38" d="M546.63194,226.6986c-.2045-.0303-17.9895.3838-17.9895.3838l1.6502,7.4763,17.0122-6.6791Z"/><path class="cls-39" d="M546.99344,225.4952c-.1818-.0985-17.0359-5.7921-17.0359-5.7921l-1.0063,7.5898,18.2706-.4577Z"/><path class="cls-40" d="M547.74474,224.488c-.1372-.1547-14.0275-11.2694-14.0275-11.2694l-3.5415,6.7879,17.32542,5.8188Z"/><path class="cls-41" d="M548.79524,223.7985c-.076-.1922-9.3272-15.3874-9.3272-15.3874l-5.6495,5.1672,14.2903,11.3936Z"/><path class="cls-42" d="M550.01816,223.5099c-.00562-.2066-3.50182-17.6495-3.50182-17.6495l-7.0761,2.9233,9.5317,15.5941Z"/><path class="cls-2" d="M524.02054,227.5503a26.49,26.49,0,1,0,26.49-26.5A26.49,26.49,0,0,0,524.02054,227.5503Zm2.99,0a23.505,23.505,0,1,1,23.5,23.5A23.50686,23.50686,0,0,1,527.01054,227.5503Z"/><path class="cls-22" d="M527.01054,227.5503a23.505,23.505,0,1,0,23.5-23.51A23.49833,23.49833,0,0,0,527.01054,227.5503Zm2.92,0a20.585,20.585,0,1,1,20.58,20.5801A20.58351,20.58351,0,0,1,529.93054,227.5503Z"/><path class="cls-1" d="M455.16475,213.2342s.3282-.0679.945-.198c8.3182-1.7089,69.64649-14.1466,105.81641-16.7779,31.85808-2.32,185.456-15.4198,239.73928-20.0598l.0735-.0057c11.8719-1.0185,18.9735-1.624,18.9735-1.624v-2.6426l-.7075-.1699a28.205,28.205,0,0,0-8.1202-.7375L459.66345,190.2262Z"/><path class="cls-2" d="M456.10975,213.0362c8.3182-1.7089,69.64649-14.1466,105.81641-16.7779,31.85808-2.32,185.456-15.4198,239.73928-20.0598l-342.002,18.6508Z"/><path class="cls-2" d="M611.343,203.0506h0a4.33833,4.33833,0,0,0,4.3383-4.3383v-9.0538h-8.6766v9.0538A4.33827,4.33827,0,0,0,611.343,203.0506Z"/><rect class="cls-2" x="544.99554" y="193.596" width="10.3978" height="9.266" transform="translate(1100.38889 396.458) rotate(180)"/><path class="cls-23" d="M544.99554,226.7697a5.51715,5.51715,0,1,0,5.5172-5.5172A5.51713,5.51713,0,0,0,544.99554,226.7697Z"/><path class="cls-24" d="M547.30484,226.7697a3.20785,3.20785,0,1,0,3.2079-3.2079A3.20785,3.20785,0,0,0,547.30484,226.7697Z"/><path class="cls-43" d="M414.71455,122.2265h-8.4667l2.8707-120.8959A1.363,1.363,0,0,1,410.48116,0h0a1.36306,1.36306,0,0,1,1.36269,1.3306Z"/><path class="cls-1" d="M412.88205,122.2265h-4.8017l1.6281-107.463c.0099-.6577.353-1.1828.77271-1.1828h0c.41979,0,.76289.5251.77279,1.1828Z"/><path class="cls-2" d="M454.92275,181.5459l-44.44159,3.5857-44.44151-3.5857c-1.3204,5.2794-13.7694,16.7892-8.488,21.3161s6.6018,9.9969,8.488,18.6734c1.8862,8.6766,14.37851,7.9221,14.37851,7.9221l30.063.0166,30.06309-.0166s12.4923.7545,14.3785-7.9221c1.8862-8.6765,3.2066-14.1465,8.488-18.6734S456.24316,186.8253,454.92275,181.5459Z"/><path class="cls-1" d="M364.99545,158.4417l-1.2335,1.9239-2.3031,3.5933-87.2165-9.7612s-.7356-.1188-1.6184-.3169c-1.2392-.2886-2.7727-.7356-2.9764-1.2619,0,0,.5659-1.392,13.0148-.8261C295.11135,152.3587,364.99545,158.4417,364.99545,158.4417Z"/><path class="cls-2" d="M363.762,160.3656l-2.3031,3.5933-87.2165-9.7612s-.7356-.1188-1.6184-.3169a71.85636,71.85636,0,0,1,10.0384-.0566C294.13245,154.3449,354.35725,159.5508,363.762,160.3656Z"/><path class="cls-1" d="M455.967,158.4417l1.2335,1.9239,2.3031,3.5933L546.72,154.1977s.7356-.1188,1.6184-.3169c1.2392-.2886,2.77272-.7356,2.9764-1.2619,0,0-.5659-1.392-13.0149-.8261C525.851,152.3587,455.967,158.4417,455.967,158.4417Z"/><path class="cls-2" d="M457.20045,160.3656l2.3031,3.5933L546.72,154.1977s.7356-.1188,1.6184-.3169a71.85755,71.85755,0,0,0-10.0385-.0566C526.82994,154.3449,466.60516,159.5508,457.20045,160.3656Z"/><path class="cls-1" d="M460.27716,168.0614A49.79777,49.79777,0,1,1,441.4,129.0281,49.575,49.575,0,0,1,460.27716,168.0614Z"/><path class="cls-22" d="M410.48116,190.2262a228.63828,228.63828,0,0,0-42.468,3.8479,49.80775,49.80775,0,0,0,84.93609,0A228.63784,228.63784,0,0,0,410.48116,190.2262Z"/><path class="cls-43" d="M441.4,129.0281c-3.6724,2.2861-7.0223,5.9869-8.4993,14.0391-.07349.4131-.1527.8318-.2319,1.2619-.07359.3621-.1415.7356-.2151,1.109-.1414.7187-.2886,1.46-.447,2.2069-.2377,1.1431-.4923,2.32-.7696,3.5084-.4187,1.7938-.8771,3.6271-1.392,5.4605q-.16125.57735-.3225,1.1544c-3.52539,12.0699-9.3142,23.7776-19.04139,23.7776-9.72711,0-15.51591-11.7077-19.04121-23.7776-.1075-.3848-.2207-.7695-.3282-1.1544-.515-1.8334-.9733-3.6724-1.3921-5.4662-.2772-1.1883-.5319-2.3653-.76949-3.5083-.15851-.747-.30561-1.4826-.44711-2.2013-.0735-.3791-.1414-.7469-.215-1.1147-.0792-.4244-.1584-.8431-.232-1.2562-1.47689-8.0466-4.8155-11.7473-8.4936-14.0391a49.79256,49.79256,0,0,1,61.8375,0Z"/><path class="cls-1" d="M371.54105,160.5185a1.2573,1.2573,0,0,1-.9671-1.9178c2.40421-3.8567,8.18521-12.7709,10.4553-13.1031,2.9001-.4244,7.0026-1.4147,8.9831-1.2025,1.58581.1699,13.2383.7933,17.8205,1.035a1.89545,1.89545,0,0,1,1.79431,1.946l-.25291,9.5613a1.89859,1.89859,0,0,1-2.0072,1.8452l-20.1133-1.1604-9.9733,3.4659Z"/><path class="cls-44" d="M371.63345,159.3905a.11921.11921,0,0,1-.105-.0702.11238.11238,0,0,1,.0058-.1204c5.9863-9.6031,8.9386-12.4302,9.6636-12.5833.8797-.1288,1.8426-.3039,2.8619-.4896a35.78931,35.78931,0,0,1,5.3345-.7294,4.7819,4.7819,0,0,1,.4976.0226c1.6214.1735,13.04531.7853,17.8814,1.04a.76057.76057,0,0,1,.7225.7858l-.2531,9.5617a.77064.77064,0,0,1-.7642.7465l-20.3838-1.1748-9.9601,3.4615Z"/><rect class="cls-1" x="382.46888" y="150.04119" width="12.88875" height="1.69787" transform="translate(137.68605 483.91601) rotate(-74.17512)"/><path class="cls-1" d="M449.42135,160.5185a1.25722,1.25722,0,0,0,.967-1.9178c-2.4041-3.8567-8.1851-12.7709-10.45519-13.1031-2.90011-.4244-7.00261-1.4147-8.98311-1.2025-1.5858.1699-13.2383.7933-17.8205,1.035a1.89544,1.89544,0,0,0-1.7943,1.946l.25291,9.5613a1.89857,1.89857,0,0,0,2.00719,1.8452l20.1133-1.1604,9.9733,3.4659Z"/><path class="cls-44" d="M449.329,159.3905a.11921.11921,0,0,0,.105-.0702.11241.11241,0,0,0-.00579-.1204c-5.98631-9.6031-8.93861-12.4302-9.66361-12.5833-.8797-.1288-1.8426-.3039-2.8619-.4896a35.79108,35.79108,0,0,0-5.33449-.7294,4.78541,4.78541,0,0,0-.49771.0226c-1.62129.1735-13.0452.7853-17.88129,1.04a.76057.76057,0,0,0-.72251.7858l.2531,9.5617a.77057.77057,0,0,0,.7642.7465l20.3838-1.1748,9.9601,3.4615Z"/><rect class="cls-1" x="431.20021" y="144.44575" width="1.69786" height="12.88875" transform="translate(-24.77264 123.53772) rotate(-15.82488)"/></g></g></svg>